<svg xmlns="http://www.w3.org/2000/svg" version="1.1" xmlns:xlink="http://www.w3.org/1999/xlink" xmlns:svgjs="http://svgjs.dev/svgjs" width="128" height="128" viewBox="0 0 128 128"><g transform="matrix(0.8046875,0,0,0.8046875,12.221578124999994,18.694089280509942)"><svg viewBox="0 0 96 84" data-background-color="#aaaaaa" preserveAspectRatio="xMidYMid meet" height="112" width="128" xmlns="http://www.w3.org/2000/svg" xmlns:xlink="http://www.w3.org/1999/xlink"><g id="tight-bounds" transform="matrix(1,0,0,1,0.25950000000000273,0.22686824340820522)"><svg viewBox="0 0 95.481 83.54626351318359" height="83.54626351318359" width="95.481"><g><svg viewBox="0 0 95.481 83.54626351318359" height="83.54626351318359" width="95.481"><g><svg viewBox="0 0 95.481 83.54626351318359" height="83.54626351318359" width="95.481"><g id="textblocktransform"><svg viewBox="0 0 95.481 83.54626351318359" height="83.54626351318359" width="95.481" id="textblock"><g><svg viewBox="0 0 95.481 83.54626351318359" height="83.54626351318359" width="95.481"><g><svg viewBox="0 0 95.481 83.54626351318359" height="83.54626351318359" width="95.481"><g><svg xmlns="http://www.w3.org/2000/svg" xmlns:xlink="http://www.w3.org/1999/xlink" version="1.1" viewBox="5.119 25.601 245.76 215.041" x="0" y="0" height="83.54626351318359" width="95.481" class="icon-icon-0" data-fill-palette-color="accent" id="icon-0"><path d="M58.88 90.88C61.005 90.88 62.72 89.165 62.72 87.04S61.005 83.2 58.88 83.2H56.32C54.195 83.2 52.48 84.915 52.48 87.04S54.195 90.88 56.32 90.88z" fill="#ffffff" data-fill-palette-color="accent"></path><path d="M35.84 90.88C37.965 90.88 39.68 89.165 39.68 87.04S37.965 83.2 35.84 83.2H33.28C31.155 83.2 29.44 84.915 29.44 87.04S31.155 90.88 33.28 90.88z" fill="#ffffff" data-fill-palette-color="accent"></path><path d="M81.92 90.88C84.045 90.88 85.76 89.165 85.76 87.04S84.045 83.2 81.92 83.2H79.36C77.235 83.2 75.52 84.915 75.52 87.04S77.235 90.88 79.36 90.88z" fill="#ffffff" data-fill-palette-color="accent"></path><path d="M10.24 90.88H12.8C14.925 90.88 16.64 89.165 16.64 87.04S14.925 83.2 12.8 83.2H10.24C8.115 83.2 6.4 84.915 6.4 87.04S8.115 90.88 10.24 90.88" fill="#ffffff" data-fill-palette-color="accent"></path><path d="M112.64 90.88H115.2C117.325 90.88 119.04 89.165 119.04 87.04S117.325 83.2 115.2 83.2H112.64C110.515 83.2 108.8 84.915 108.8 87.04S110.515 90.88 112.64 90.88" fill="#ffffff" data-fill-palette-color="accent"></path><path d="M135.68 90.88H138.24C140.365 90.88 142.08 89.165 142.08 87.04S140.365 83.2 138.24 83.2H135.68C133.555 83.2 131.84 84.915 131.84 87.04S133.555 90.88 135.68 90.88" fill="#ffffff" data-fill-palette-color="accent"></path><path d="M203.52 87.04A3.835 3.835 0 0 0 199.68 83.2H197.12C194.995 83.2 193.28 84.915 193.28 87.04S194.995 90.88 197.12 90.88H199.68A3.835 3.835 0 0 0 203.52 87.04" fill="#ffffff" data-fill-palette-color="accent"></path><path d="M174.08 83.2C171.955 83.2 170.24 84.915 170.24 87.04S171.955 90.88 174.08 90.88H176.64C178.765 90.88 180.48 89.165 180.48 87.04S178.765 83.2 176.64 83.2z" fill="#ffffff" data-fill-palette-color="accent"></path><path d="M230.4 90.88H232.96C235.085 90.88 236.8 89.165 236.8 87.04S235.085 83.2 232.96 83.2H230.4C228.275 83.2 226.56 84.915 226.56 87.04S228.275 90.88 230.4 90.88" fill="#ffffff" data-fill-palette-color="accent"></path><path d="M245.76 168.96H102.4V152.935C109.594 151.092 115.226 145.434 117.095 138.24H138.24C152.346 138.215 163.815 126.745 163.84 112.64V65.895C171.034 64.052 176.666 58.394 178.535 51.201H194.56C198.784 51.201 202.598 52.916 205.415 55.706 208.206 58.522 209.921 62.336 209.921 66.56V113.306C201.089 115.584 194.561 123.572 194.561 133.121 194.561 144.436 203.726 153.601 215.041 153.601S235.521 144.436 235.521 133.121C235.521 123.572 228.993 115.585 220.161 113.307V66.561C220.136 52.456 208.667 40.986 194.561 40.961H178.536C176.257 32.129 168.27 25.601 158.721 25.601 147.406 25.601 138.241 34.766 138.241 46.081 138.241 55.63 144.769 63.617 153.601 65.895V112.64C153.601 116.864 151.886 120.678 149.095 123.495 146.279 126.285 142.464 128.001 138.24 128.001H117.095C115.252 120.807 109.594 115.175 102.4 113.306V66.561C102.4 59.7 99.968 53.402 95.872 48.718 91.802 44.059 85.913 40.961 79.36 40.961H65.894C63.615 32.129 55.628 25.601 46.08 25.601 34.765 25.601 25.6 34.766 25.6 46.081S34.765 66.561 46.08 66.561C55.629 66.561 63.616 60.033 65.894 51.201H79.36C82.662 51.201 85.734 52.712 88.166 55.476 90.572 58.215 92.159 62.157 92.159 66.561V113.307C83.327 115.585 76.799 123.573 76.799 133.122S83.327 150.658 92.159 152.937V168.962H10.239C7.423 168.962 5.119 171.266 5.119 174.082S7.423 179.202 10.239 179.202H92.159V200.347C83.327 202.626 76.799 210.613 76.799 220.162 76.799 231.477 85.964 240.642 97.279 240.642S117.759 231.477 117.759 220.162C117.759 210.613 111.231 202.626 102.399 200.347V179.202H245.759C248.575 179.202 250.879 176.898 250.879 174.082S248.575 168.962 245.759 168.962zM225.28 133.12C225.28 135.961 224.154 138.496 222.285 140.365S217.882 143.36 215.04 143.36C212.199 143.36 209.664 142.234 207.795 140.365S204.8 135.962 204.8 133.12C204.8 130.279 205.926 127.744 207.795 125.875S212.198 122.88 215.04 122.88C217.881 122.88 220.416 124.007 222.285 125.875S225.28 130.278 225.28 133.12M148.48 46.08C148.48 43.239 149.606 40.704 151.475 38.835S155.878 35.84 158.72 35.84C161.561 35.84 164.096 36.967 165.965 38.835S168.96 43.238 168.96 46.08C168.96 48.921 167.834 51.456 165.965 53.325S161.562 56.32 158.72 56.32C155.879 56.32 153.344 55.193 151.475 53.325S148.48 48.922 148.48 46.08M53.325 53.325C51.456 55.194 48.922 56.32 46.08 56.32S40.704 55.193 38.835 53.325 35.84 48.922 35.84 46.08 36.967 40.704 38.835 38.835 43.238 35.84 46.08 35.84 51.456 36.967 53.325 38.835 56.32 43.238 56.32 46.08 55.193 51.456 53.325 53.325M87.04 133.12C87.04 130.279 88.167 127.744 90.035 125.875S94.438 122.88 97.28 122.88C100.121 122.88 102.656 124.007 104.525 125.875S107.52 130.278 107.52 133.12C107.52 135.961 106.393 138.496 104.525 140.365S100.122 143.36 97.28 143.36C94.439 143.36 91.904 142.234 90.035 140.365S87.04 135.962 87.04 133.12M107.52 220.16C107.52 223.001 106.393 225.536 104.525 227.405S100.122 230.4 97.28 230.4C94.439 230.4 91.904 229.274 90.035 227.405S87.04 223.002 87.04 220.16C87.04 217.319 88.167 214.784 90.035 212.915S94.438 209.92 97.28 209.92C100.121 209.92 102.656 211.046 104.525 212.915S107.52 217.318 107.52 220.16" fill="#ffffff" data-fill-palette-color="accent"></path></svg></g></svg></g></svg></g></svg></g></svg></g></svg></g><defs></defs></svg><rect width="95.481" height="83.54626351318359" fill="none" stroke="none" visibility="hidden"></rect></g></svg></g></svg>